<svg width="900" height="184" viewBox="0 0 900 184" fill="none" xmlns="http://www.w3.org/2000/svg">
  <path
    d="M0 17L15 25.7C30 34.3 60 51.7 90 49.5C120 47.3 150 25.7 180 13.2C210 0.700022 240 -2.69999 270 3.00001C300 8.70001 330 23.3 360 32.7C390 42 420 46 450 39.8C480 33.7 510 17.3 540 15.7C570 14 600 27 630 38.7C660 50.3 690 60.7 720 65C750 69.3 780 67.7 810 64.7C840 61.7 870 57.3 885 55.2L900 53V184H885C870 184 840 184 810 184C780 184 750 184 720 184C690 184 660 184 630 184C600 184 570 184 540 184C510 184 480 184 450 184C420 184 390 184 360 184C330 184 300 184 270 184C240 184 210 184 180 184C150 184 120 184 90 184C60 184 30 184 15 184H0V17Z"
    fill="#6419E6" />
</svg>