<svg width="901" height="249" viewBox="0 0 901 249" fill="none" xmlns="http://www.w3.org/2000/svg">
<path d="M0.713593 0.368103L22.2136 6.8681C43.7136 13.3681 86.7136 26.3681 129.514 28.5681C172.414 30.6681 215.014 22.0681 257.914 28.0681C300.714 34.0681 343.714 54.6681 386.514 54.8681C429.414 55.0681 472.014 34.6681 514.914 37.3681C557.714 40.0681 600.714 65.6681 643.514 73.3681C686.414 81.0681 729.014 70.6681 771.914 56.0681C814.714 41.3681 857.714 22.3681 879.214 12.8681L900.714 3.3681V248.368H879.214C857.714 248.368 814.714 248.368 771.914 248.368C729.014 248.368 686.414 248.368 643.514 248.368C600.714 248.368 557.714 248.368 514.914 248.368C472.014 248.368 429.414 248.368 386.514 248.368C343.714 248.368 300.714 248.368 257.914 248.368C215.014 248.368 172.414 248.368 129.514 248.368C86.7136 248.368 43.7136 248.368 22.2136 248.368H0.713593V0.368103Z" fill="#FA7268"/>
<path d="M0.713593 77.3681L22.2136 85.5681C43.7136 93.6681 86.7136 110.068 129.514 113.068C172.414 116.068 215.014 105.668 257.914 92.1681C300.714 78.6681 343.714 62.0681 386.514 66.0681C429.414 70.0681 472.014 94.6681 514.914 95.1681C557.714 95.6681 600.714 72.0681 643.514 60.5681C686.414 49.0681 729.014 49.6681 771.914 53.6681C814.714 57.6681 857.714 65.0681 879.214 68.6681L900.714 72.3681V248.368H879.214C857.714 248.368 814.714 248.368 771.914 248.368C729.014 248.368 686.414 248.368 643.514 248.368C600.714 248.368 557.714 248.368 514.914 248.368C472.014 248.368 429.414 248.368 386.514 248.368C343.714 248.368 300.714 248.368 257.914 248.368C215.014 248.368 172.414 248.368 129.514 248.368C86.7136 248.368 43.7136 248.368 22.2136 248.368H0.713593V77.3681Z" fill="#F94677"/>
<path d="M0.713593 156.368L22.2136 145.868C43.7136 135.368 86.7136 114.368 129.514 104.868C172.414 95.3681 215.014 97.3681 257.914 100.068C300.714 102.668 343.714 106.068 386.514 105.868C429.414 105.668 472.014 102.068 514.914 101.668C557.714 101.368 600.714 104.368 643.514 106.668C686.414 109.068 729.014 110.668 771.914 116.668C814.714 122.668 857.714 133.068 879.214 138.168L900.714 143.368V248.368H879.214C857.714 248.368 814.714 248.368 771.914 248.368C729.014 248.368 686.414 248.368 643.514 248.368C600.714 248.368 557.714 248.368 514.914 248.368C472.014 248.368 429.414 248.368 386.514 248.368C343.714 248.368 300.714 248.368 257.914 248.368C215.014 248.368 172.414 248.368 129.514 248.368C86.7136 248.368 43.7136 248.368 22.2136 248.368H0.713593V156.368Z" fill="#EA0093"/>
<path d="M0.713593 133.368L22.2136 134.668C43.7136 136.068 86.7136 138.668 129.514 145.068C172.414 151.368 215.014 161.368 257.914 164.068C300.714 166.668 343.714 162.068 386.514 158.368C429.414 154.668 472.014 152.068 514.914 152.568C557.714 153.068 600.714 156.668 643.514 163.168C686.414 169.668 729.014 179.068 771.914 178.668C814.714 178.368 857.714 168.368 879.214 163.368L900.714 158.368V248.368H879.214C857.714 248.368 814.714 248.368 771.914 248.368C729.014 248.368 686.414 248.368 643.514 248.368C600.714 248.368 557.714 248.368 514.914 248.368C472.014 248.368 429.414 248.368 386.514 248.368C343.714 248.368 300.714 248.368 257.914 248.368C215.014 248.368 172.414 248.368 129.514 248.368C86.7136 248.368 43.7136 248.368 22.2136 248.368H0.713593V133.368Z" fill="#C300BA"/>
<path d="M0.713593 184.368L22.2136 189.868C43.7136 195.368 86.7136 206.368 129.514 210.568C172.414 214.668 215.014 212.068 257.914 207.068C300.714 202.068 343.714 194.668 386.514 189.668C429.414 184.668 472.014 182.068 514.914 181.068C557.714 180.068 600.714 180.668 643.514 181.168C686.414 181.668 729.014 182.068 771.914 181.068C814.714 180.068 857.714 177.668 879.214 176.568L900.714 175.368V248.368H879.214C857.714 248.368 814.714 248.368 771.914 248.368C729.014 248.368 686.414 248.368 643.514 248.368C600.714 248.368 557.714 248.368 514.914 248.368C472.014 248.368 429.414 248.368 386.514 248.368C343.714 248.368 300.714 248.368 257.914 248.368C215.014 248.368 172.414 248.368 129.514 248.368C86.7136 248.368 43.7136 248.368 22.2136 248.368H0.713593V184.368Z" fill="#6419E6"/>
</svg>
